<mxfile host="app.diagrams.net" modified="2022-07-22T07:38:02.286Z" agent="5.0 (Windows NT 10.0; Win64; x64) AppleWebKit/537.36 (KHTML, like Gecko) Chrome/103.0.0.0 Safari/537.36" etag="zls7Nrbcbv3I2QrHmCCh" version="20.1.1" type="github">
  <diagram id="DrnEyP8uzaj-RsVNbWX1" name="Page-1">
    <mxGraphModel dx="129" dy="67" grid="1" gridSize="10" guides="1" tooltips="1" connect="1" arrows="1" fold="1" page="1" pageScale="1" pageWidth="827" pageHeight="1169" math="1" shadow="0">
      <root>
        <mxCell id="0" />
        <mxCell id="1" parent="0" />
        <mxCell id="FuDXW2LtVH0RufSL3Sr8-1" value="" style="rounded=0;whiteSpace=wrap;html=1;strokeColor=#00FF00;strokeWidth=3;" vertex="1" parent="1">
          <mxGeometry x="70" y="210" width="190" height="110" as="geometry" />
        </mxCell>
        <mxCell id="FuDXW2LtVH0RufSL3Sr8-2" value="" style="rounded=0;whiteSpace=wrap;html=1;strokeColor=#00FF00;strokeWidth=3;" vertex="1" parent="1">
          <mxGeometry x="290" y="210" width="180" height="110" as="geometry" />
        </mxCell>
        <mxCell id="FuDXW2LtVH0RufSL3Sr8-3" value="" style="rounded=0;whiteSpace=wrap;html=1;strokeColor=#00FF00;strokeWidth=3;" vertex="1" parent="1">
          <mxGeometry x="70" y="340" width="190" height="130" as="geometry" />
        </mxCell>
        <mxCell id="FuDXW2LtVH0RufSL3Sr8-5" value="" style="rounded=0;whiteSpace=wrap;html=1;rotation=-90;strokeColor=#0000CC;" vertex="1" parent="1">
          <mxGeometry x="355" y="260" width="80" height="10" as="geometry" />
        </mxCell>
        <mxCell id="FuDXW2LtVH0RufSL3Sr8-6" value="" style="whiteSpace=wrap;html=1;aspect=fixed;fillColor=none;strokeColor=#FF0000;" vertex="1" parent="1">
          <mxGeometry x="73" y="344" width="60" height="60" as="geometry" />
        </mxCell>
        <mxCell id="FuDXW2LtVH0RufSL3Sr8-10" value="" style="whiteSpace=wrap;html=1;aspect=fixed;fillColor=none;strokeColor=#FF0000;" vertex="1" parent="1">
          <mxGeometry x="133" y="344" width="60" height="60" as="geometry" />
        </mxCell>
        <mxCell id="FuDXW2LtVH0RufSL3Sr8-11" value="" style="whiteSpace=wrap;html=1;aspect=fixed;fillColor=none;strokeColor=#FF0000;" vertex="1" parent="1">
          <mxGeometry x="193" y="344" width="60" height="60" as="geometry" />
        </mxCell>
        <mxCell id="FuDXW2LtVH0RufSL3Sr8-12" value="" style="whiteSpace=wrap;html=1;aspect=fixed;fillColor=none;strokeColor=#FF0000;" vertex="1" parent="1">
          <mxGeometry x="193" y="404" width="60" height="60" as="geometry" />
        </mxCell>
        <mxCell id="FuDXW2LtVH0RufSL3Sr8-14" value="&lt;font style=&quot;font-size: 11px;&quot; face=&quot;Times New Roman&quot;&gt;P&lt;sub style=&quot;font-size: 11px;&quot;&gt;&lt;font style=&quot;font-size: 11px;&quot;&gt;1&lt;/font&gt;&lt;/sub&gt;&lt;/font&gt;" style="text;html=1;strokeColor=none;fillColor=none;align=center;verticalAlign=middle;whiteSpace=wrap;rounded=0;" vertex="1" parent="1">
          <mxGeometry x="88" y="366.5" width="30" height="15" as="geometry" />
        </mxCell>
        <mxCell id="FuDXW2LtVH0RufSL3Sr8-16" value="&lt;b&gt;&lt;font style=&quot;font-size: 15px;&quot;&gt;.....&lt;/font&gt;&lt;/b&gt;" style="text;html=1;strokeColor=none;fillColor=none;align=center;verticalAlign=middle;whiteSpace=wrap;rounded=0;" vertex="1" parent="1">
          <mxGeometry x="103" y="424" width="50" height="20" as="geometry" />
        </mxCell>
        <mxCell id="FuDXW2LtVH0RufSL3Sr8-17" value="&lt;font face=&quot;Times New Roman&quot;&gt;P&lt;sub&gt;3&lt;/sub&gt;&lt;/font&gt;" style="text;html=1;strokeColor=none;fillColor=none;align=center;verticalAlign=middle;whiteSpace=wrap;rounded=0;" vertex="1" parent="1">
          <mxGeometry x="208" y="361.5" width="30" height="25" as="geometry" />
        </mxCell>
        <mxCell id="FuDXW2LtVH0RufSL3Sr8-18" value="&lt;span style=&quot;font-family: &amp;quot;Times New Roman&amp;quot;;&quot;&gt;P&lt;span style=&quot;font-size: 10px;&quot;&gt;n&lt;/span&gt;&lt;/span&gt;" style="text;html=1;strokeColor=none;fillColor=none;align=center;verticalAlign=middle;whiteSpace=wrap;rounded=0;" vertex="1" parent="1">
          <mxGeometry x="213" y="421.5" width="30" height="25" as="geometry" />
        </mxCell>
        <mxCell id="FuDXW2LtVH0RufSL3Sr8-19" value="&lt;font face=&quot;Times New Roman&quot;&gt;P&lt;span style=&quot;font-size: 11px;&quot;&gt;&lt;sub&gt;2&lt;/sub&gt;&lt;/span&gt;&lt;/font&gt;" style="text;html=1;strokeColor=none;fillColor=none;align=center;verticalAlign=middle;whiteSpace=wrap;rounded=0;" vertex="1" parent="1">
          <mxGeometry x="146.75" y="361.5" width="32.5" height="25" as="geometry" />
        </mxCell>
        <mxCell id="FuDXW2LtVH0RufSL3Sr8-22" value="" style="whiteSpace=wrap;html=1;aspect=fixed;fillColor=none;strokeColor=#FF0000;" vertex="1" parent="1">
          <mxGeometry x="290" y="340" width="90" height="90" as="geometry" />
        </mxCell>
        <mxCell id="FuDXW2LtVH0RufSL3Sr8-23" value="" style="whiteSpace=wrap;html=1;aspect=fixed;fillColor=none;strokeColor=#FF0000;" vertex="1" parent="1">
          <mxGeometry x="390" y="389" width="90" height="90" as="geometry" />
        </mxCell>
        <mxCell id="FuDXW2LtVH0RufSL3Sr8-24" value="" style="rounded=0;whiteSpace=wrap;html=1;fontFamily=Times New Roman;fontSize=11;strokeColor=#3333FF;strokeWidth=1;fillColor=none;" vertex="1" parent="1">
          <mxGeometry x="315" y="361.5" width="40" height="8.5" as="geometry" />
        </mxCell>
        <mxCell id="FuDXW2LtVH0RufSL3Sr8-25" value="" style="rounded=0;whiteSpace=wrap;html=1;fontFamily=Times New Roman;fontSize=11;strokeColor=#3333FF;strokeWidth=1;fillColor=none;rotation=-90;" vertex="1" parent="1">
          <mxGeometry x="411.63" y="434.13" width="52.25" height="16" as="geometry" />
        </mxCell>
        <mxCell id="FuDXW2LtVH0RufSL3Sr8-26" value="" style="curved=1;endArrow=classic;html=1;rounded=0;fontFamily=Times New Roman;fontSize=11;exitX=0.5;exitY=0;exitDx=0;exitDy=0;entryX=0;entryY=1;entryDx=0;entryDy=0;" edge="1" parent="1" source="FuDXW2LtVH0RufSL3Sr8-6" target="FuDXW2LtVH0RufSL3Sr8-24">
          <mxGeometry width="50" height="50" relative="1" as="geometry">
            <mxPoint x="240" y="340" as="sourcePoint" />
            <mxPoint x="290" y="290" as="targetPoint" />
            <Array as="points">
              <mxPoint x="270" y="300" />
              <mxPoint x="270" y="390" />
            </Array>
          </mxGeometry>
        </mxCell>
        <mxCell id="FuDXW2LtVH0RufSL3Sr8-30" value="Resize" style="edgeLabel;html=1;align=center;verticalAlign=middle;resizable=0;points=[];fontSize=11;fontFamily=Times New Roman;" vertex="1" connectable="0" parent="FuDXW2LtVH0RufSL3Sr8-26">
          <mxGeometry x="0.0334" y="-10" relative="1" as="geometry">
            <mxPoint y="30" as="offset" />
          </mxGeometry>
        </mxCell>
        <mxCell id="FuDXW2LtVH0RufSL3Sr8-27" value="" style="curved=1;endArrow=classic;html=1;rounded=0;fontFamily=Times New Roman;fontSize=11;exitX=0.5;exitY=1;exitDx=0;exitDy=0;entryX=0.25;entryY=0;entryDx=0;entryDy=0;" edge="1" parent="1">
          <mxGeometry width="50" height="50" relative="1" as="geometry">
            <mxPoint x="153" y="404" as="sourcePoint" />
            <mxPoint x="419.75" y="458.2499999999999" as="targetPoint" />
            <Array as="points">
              <mxPoint x="193.75" y="417.5" />
              <mxPoint x="267" y="510" />
              <mxPoint x="360" y="470" />
            </Array>
          </mxGeometry>
        </mxCell>
        <mxCell id="FuDXW2LtVH0RufSL3Sr8-31" value="Resize" style="edgeLabel;html=1;align=center;verticalAlign=middle;resizable=0;points=[];fontSize=11;fontFamily=Times New Roman;" vertex="1" connectable="0" parent="FuDXW2LtVH0RufSL3Sr8-27">
          <mxGeometry x="-0.3531" y="-1" relative="1" as="geometry">
            <mxPoint x="57" y="13" as="offset" />
          </mxGeometry>
        </mxCell>
        <mxCell id="FuDXW2LtVH0RufSL3Sr8-28" value="&lt;font style=&quot;font-size: 11px;&quot; face=&quot;Times New Roman&quot;&gt;P&lt;sub style=&quot;font-size: 11px;&quot;&gt;&lt;font style=&quot;font-size: 11px;&quot;&gt;1&lt;/font&gt;&lt;/sub&gt;&lt;/font&gt;" style="text;html=1;strokeColor=none;fillColor=none;align=center;verticalAlign=middle;whiteSpace=wrap;rounded=0;" vertex="1" parent="1">
          <mxGeometry x="340" y="409" width="30" height="15" as="geometry" />
        </mxCell>
        <mxCell id="FuDXW2LtVH0RufSL3Sr8-29" value="&lt;font style=&quot;font-size: 11px;&quot; face=&quot;Times New Roman&quot;&gt;P&lt;sub&gt;2&lt;/sub&gt;&lt;/font&gt;" style="text;html=1;strokeColor=none;fillColor=none;align=center;verticalAlign=middle;whiteSpace=wrap;rounded=0;" vertex="1" parent="1">
          <mxGeometry x="450" y="464" width="30" height="15" as="geometry" />
        </mxCell>
        <mxCell id="FuDXW2LtVH0RufSL3Sr8-33" value="&lt;b&gt;&lt;font style=&quot;font-size: 15px;&quot;&gt;.....&lt;/font&gt;&lt;/b&gt;" style="text;html=1;strokeColor=none;fillColor=none;align=center;verticalAlign=middle;whiteSpace=wrap;rounded=0;" vertex="1" parent="1">
          <mxGeometry x="310" y="444" width="50" height="20" as="geometry" />
        </mxCell>
        <mxCell id="FuDXW2LtVH0RufSL3Sr8-34" value="" style="rounded=0;whiteSpace=wrap;html=1;strokeColor=#00FF00;strokeWidth=3;" vertex="1" parent="1">
          <mxGeometry x="510" y="299" width="180" height="110" as="geometry" />
        </mxCell>
        <mxCell id="FuDXW2LtVH0RufSL3Sr8-36" value="" style="rounded=0;whiteSpace=wrap;html=1;fontFamily=Times New Roman;fontSize=11;strokeColor=#3333FF;strokeWidth=1;fillColor=none;" vertex="1" parent="1">
          <mxGeometry x="530" y="320" width="20" height="8.5" as="geometry" />
        </mxCell>
        <mxCell id="FuDXW2LtVH0RufSL3Sr8-37" value="" style="rounded=0;whiteSpace=wrap;html=1;rotation=-90;strokeColor=#0000CC;" vertex="1" parent="1">
          <mxGeometry x="530" y="341.5" width="60" height="10" as="geometry" />
        </mxCell>
        <mxCell id="FuDXW2LtVH0RufSL3Sr8-38" value="" style="rounded=0;whiteSpace=wrap;html=1;fontFamily=Times New Roman;fontSize=11;strokeColor=#3333FF;strokeWidth=1;fillColor=none;rotation=-90;" vertex="1" parent="1">
          <mxGeometry x="545.89" y="358.28" width="28.43" height="8.43" as="geometry" />
        </mxCell>
      </root>
    </mxGraphModel>
  </diagram>
</mxfile>
